<svg xmlns="http://www.w3.org/2000/svg" viewBox="0 0 512 512">
  <rect width="512" height="512" rx="112" fill="#f47f32"/>
  <path fill="#fff" d="M374 356c-67-8-128-40-171-91-15-18-27-38-36-60-3-9 5-18 14-14 24 8 47 21 68 36 51 37 87 91 104 153 2 8-4 15-12 14h-1c-4-1-7-4-8-8-15-56-48-105-94-139-12-9-25-17-39-24 8 14 17 27 28 40 38 45 92 73 151 81 5 1 9 6 8 11-1 6-6 10-12 9Z"/>
  <path fill="#fff" d="M178 342c-15 0-28-12-28-28s13-28 28-28 28 13 28 28-12 28-28 28Zm74 51c-15 0-28-13-28-28s13-28 28-28 28 12 28 28-13 28-28 28Zm-4-139c-12 0-22-10-22-22s10-22 22-22 22 10 22 22-10 22-22 22Zm64 53c-12 0-22-10-22-22s10-22 22-22 22 10 22 22-10 22-22 22Zm-51 12c-10 0-18-8-18-18s8-18 18-18 18 8 18 18-8 18-18 18Z"/>
</svg>
